<?xml version="1.0" standalone="no"?><!DOCTYPE svg PUBLIC "-//W3C//DTD SVG 1.1//EN" "http://www.w3.org/Graphics/SVG/1.1/DTD/svg11.dtd"><svg t="1738478787531" class="icon" viewBox="0 0 1024 1024" version="1.1" xmlns="http://www.w3.org/2000/svg" p-id="4264" xmlns:xlink="http://www.w3.org/1999/xlink" width="200" height="200"><path d="M511.991117 756.498695c-203.810518 0-369.634031-165.823513-369.634031-369.634031V179.244072a28.433387 28.433387 0 0 1 56.866774 0v207.620592c0 172.448492 140.318765 312.767257 312.767257 312.767257s312.767257-140.318765 312.767258-312.767257V179.244072a28.433387 28.433387 0 1 1 56.866774 0v207.620592c0 203.810518-165.823513 369.634031-369.634032 369.634031z" fill="#231F20" p-id="4265"></path><path d="M353.304384 276.315655l-34.717165-35.854501C261.436111 181.376576 181.054926 200.114178 177.614486 200.910313a28.433387 28.433387 0 1 1-13.790193-55.160771c4.037541-0.995169 87.205198-21.15444 161.586939 27.068584C349.892378 110.861776 408.209255 0.056867 511.991117 0.056867a28.433387 28.433387 0 0 1 0 56.866774c-81.00672 0-132.499583 123.628367-145.522074 171.25429l-13.164659 48.137724z" fill="#231F20" p-id="4266"></path><path d="M669.739549 277.339257l-12.396957-49.786861c-0.426501-1.706003-45.095352-170.600322-140.603099-170.600322a28.433387 28.433387 0 0 1 0-56.866774c103.639696 0 159.340701 109.980341 182.570778 172.306325 74.239573-47.59749 156.866996-27.608819 160.84767-26.585216 15.211862 3.838507 24.424279 19.30627 20.614206 34.518131a28.547121 28.547121 0 0 1-34.432832 20.642639c-3.35514-0.881435-83.764758-19.56217-140.944299 39.550842L669.739549 277.339257z" fill="#231F20" p-id="4267"></path><path d="M540.424504 995.566613a28.433387 28.433387 0 1 1-56.866774 0v-248.792136a28.433387 28.433387 0 1 1 56.866774 0V995.566613zM401.840176 980.01355a28.433387 28.433387 0 0 1-23.798745-12.823457c-73.471872-111.970678-146.830011-171.08369-212.198367-171.08369h-1.137336c-69.349031 0.710835-111.601044 66.846893-111.999111 67.500861a28.46182 28.46182 0 0 1-48.166158-30.224691c2.359971-3.810074 59.511079-93.090909 159.596602-94.171377h1.791303c86.63653 0 174.012329 66.164492 259.682124 196.730604a28.433387 28.433387 0 0 1-23.770312 44.07175zM622.142059 980.01355a28.433387 28.433387 0 0 1-23.741878-44.043316c85.669795-130.566113 173.045593-196.730605 259.682123-196.730605h1.791304c100.085522 1.052035 157.208197 90.361304 159.596601 94.171378a28.433387 28.433387 0 1 1-48.137724 30.30999c-0.853002-1.364803-43.958016-67.131227-112.482479-67.586161h-0.682402c-65.39679 0-138.726495 59.113012-212.198367 171.08369-5.487644 8.274116-14.586328 12.795024-23.827178 12.795024z" fill="#231F20" p-id="4268"></path></svg>