<?xml version="1.0" standalone="no"?><!DOCTYPE svg PUBLIC "-//W3C//DTD SVG 1.1//EN" "http://www.w3.org/Graphics/SVG/1.1/DTD/svg11.dtd"><svg t="1738479165261" class="icon" viewBox="0 0 1025 1024" version="1.1" xmlns="http://www.w3.org/2000/svg" p-id="6118" xmlns:xlink="http://www.w3.org/1999/xlink" width="200.1953125" height="200"><path d="M512.286 74c246.039 0 447 179.936 447 404s-200.961 404-447 404c-26.568 0-52.85-2.096-78.633-6.23l-1.774-0.29-137.127 70.533c-23.718 12.2-51.895-4.725-52.458-31.206l-0.008-0.805-0.005-113.954-0.683-0.464C132.997 724.876 66.692 608.785 65.308 482.048L65.286 478c0-224.064 200.96-404 447-404z m0 72c-207.94 0-375 149.583-375 332 0 109.271 60.206 210.003 159.99 271.99l0.421 0.265a36 36 0 0 1 16.583 30.313l0.003 74.433 95.455-49.099a36 36 0 0 1 22.663-3.449l0.551 0.1c25.86 4.935 52.403 7.447 79.334 7.447 207.939 0 375-149.583 375-332s-167.061-332-375-332zM341.354 527.933l171.012 0.067c17.673 0.007 31.994 14.34 31.987 32.013-0.007 17.496-14.054 31.707-31.483 31.983l-0.53 0.004-171.011-0.067c-17.674-0.007-31.995-14.34-31.988-32.013 0.007-17.496 14.054-31.707 31.484-31.983l0.529-0.004z m341.32-144c17.674 0 32 14.327 32 32 0 17.496-14.041 31.713-31.47 31.996l-0.53 0.004H341.341c-17.673 0-32-14.327-32-32 0-17.497 14.042-31.713 31.47-31.996l0.53-0.004h341.333z" fill="#333333" p-id="6119"></path></svg>